<?xml version="1.0" encoding="UTF-8" standalone="no"?>
<svg
   xmlns:dc="http://purl.org/dc/elements/1.1/"
   xmlns:cc="http://creativecommons.org/ns#"
   xmlns:rdf="http://www.w3.org/1999/02/22-rdf-syntax-ns#"
   xmlns:svg="http://www.w3.org/2000/svg"
   xmlns="http://www.w3.org/2000/svg"
   xmlns:sodipodi="http://sodipodi.sourceforge.net/DTD/sodipodi-0.dtd"
   xmlns:inkscape="http://www.inkscape.org/namespaces/inkscape"
   width="3.54444in"
   height="2.66667in"
   viewBox="0 0 319 240"
   id="svg2"
   version="1.1"
   inkscape:version="0.91 r13725"
   sodipodi:docname="vb_white.svg">
  <metadata
     id="metadata9">
    <rdf:RDF>
      <cc:Work
         rdf:about="">
        <dc:format>image/svg+xml</dc:format>
        <dc:type
           rdf:resource="http://purl.org/dc/dcmitype/StillImage" />
        <dc:title></dc:title>
      </cc:Work>
    </rdf:RDF>
  </metadata>
  <defs
     id="defs7" />
  <sodipodi:namedview
     pagecolor="#ffffff"
     bordercolor="#666666"
     borderopacity="1"
     objecttolerance="10"
     gridtolerance="10"
     guidetolerance="10"
     inkscape:pageopacity="0"
     inkscape:pageshadow="2"
     inkscape:window-width="1855"
     inkscape:window-height="1056"
     id="namedview5"
     showgrid="false"
     inkscape:zoom="0.93417044"
     inkscape:cx="159.4998"
     inkscape:cy="120.00015"
     inkscape:window-x="65"
     inkscape:window-y="24"
     inkscape:window-maximized="1"
     inkscape:current-layer="svg2" />
  <path
     id="Selection"
     fill="none"
     stroke="black"
     stroke-width="1"
     d="M 77.00,22.00            C 77.00,22.00 84.42,70.00 84.42,70.00              84.42,70.00 99.58,168.00 99.58,168.00              99.58,168.00 104.13,199.00 104.13,199.00              104.70,201.81 105.84,208.96 104.13,211.27              101.85,213.98 93.30,213.99 90.00,214.00              90.00,214.00 64.00,214.00 64.00,214.00              56.62,213.86 57.37,212.62 55.59,202.00              55.59,202.00 50.25,170.00 50.25,170.00              50.25,170.00 33.75,72.00 33.75,72.00              33.75,72.00 26.00,22.00 26.00,22.00              26.00,22.00 77.00,22.00 77.00,22.00 Z            M 111.25,141.00            C 110.12,134.13 108.13,124.85 109.21,118.00              110.21,111.69 113.75,111.25 116.08,107.79              116.08,107.79 123.00,93.00 123.00,93.00              123.00,93.00 149.69,45.00 149.69,45.00              152.84,39.18 157.51,27.14 163.04,23.98              166.50,22.01 172.09,22.01 176.00,22.00              176.00,22.00 212.00,22.00 212.00,22.00              212.00,22.00 189.42,64.00 189.42,64.00              189.42,64.00 147.42,138.00 147.42,138.00              147.42,138.00 128.80,170.00 128.80,170.00              128.80,170.00 118.00,186.00 118.00,186.00              118.00,186.00 111.25,141.00 111.25,141.00 Z            M 229.58,34.00            C 231.72,30.31 233.85,25.42 238.04,23.74              242.30,22.03 254.18,23.83 259.00,24.59              266.64,25.80 276.67,28.27 283.00,32.79              300.01,44.92 298.87,68.19 289.88,85.00              280.51,102.53 268.81,103.13 255.00,113.00              263.54,115.49 271.52,118.18 277.67,125.09              297.45,147.31 278.95,187.17 257.00,200.54              237.02,212.71 221.04,211.00 199.00,211.00              199.00,211.00 128.00,211.00 128.00,211.00              131.97,201.78 135.69,195.52 140.80,187.00              145.39,179.35 146.29,175.14 156.00,175.00              156.00,175.00 200.00,175.00 200.00,175.00              207.28,174.96 214.94,173.69 221.00,169.36              231.73,161.70 240.37,144.69 227.96,134.39              221.96,129.41 217.19,130.01 210.00,130.00              210.00,130.00 195.00,129.00 195.00,129.00              195.00,129.00 176.00,129.00 176.00,129.00              178.30,120.95 184.06,112.22 188.40,105.00              190.08,102.20 192.34,97.80 195.18,96.17              197.46,94.87 200.45,95.01 203.00,95.00              212.80,94.95 225.89,96.26 233.83,89.47              241.33,83.05 244.85,70.08 234.98,64.01              229.93,60.89 220.83,61.00 215.00,61.00              217.00,54.15 225.63,40.79 229.58,34.00 Z" />
  <path
     style="fill:#000000;stroke:none;stroke-width:1px;stroke-linecap:butt;stroke-linejoin:miter;stroke-opacity:1"
     d="M 58.960662,211.57873 C 57.779776,210.05001 27.618086,30.506965 27.618086,25.006246 c 0,-1.384548 3.312751,-1.563405 24.35299,-1.314828 l 24.352989,0.287714 13.080388,84.567008 c 7.194212,46.51186 13.406037,88.52646 13.804057,93.36578 l 0.72367,8.79877 -2.90127,1.10306 c -4.351011,1.65425 -40.768001,1.45081 -42.070248,-0.23502 z"
     id="path3337"
     inkscape:connector-curvature="0"
     transform="matrix(1.0000013,0,0,1.0000013,0,-3.0517616e-4)" />
  <path
     style="fill:#000000"
     d="m 118.12529,179.60838 c -2.72705,-15.59385 -8.08113,-53.62023 -8.08113,-57.3948 0,-4.77212 2.43503,-10.99127 4.3035,-10.99127 0.57041,0 3.84936,-5.6601 7.28656,-12.578002 3.43719,-6.917903 10.82891,-20.767088 16.42603,-30.775969 5.59713,-10.00888 12.43257,-22.533361 15.18988,-27.83218 5.49047,-10.551238 7.62565,-13.508284 11.09425,-15.364625 2.1766,-1.164883 45.25335,-1.889394 45.25335,-0.761119 0,2.894912 -75.44817,136.233075 -86.28311,152.486555 l -4.55579,6.83413 -0.63354,-3.62272 z"
     id="path3339"
     inkscape:connector-curvature="0"
     transform="matrix(1.0000013,0,0,1.0000013,0,-3.0517616e-4)" />
  <path
     style="fill:#ffffff"
     d="m 130.96098,207.35341 c 1.21354,-3.94611 13.31494,-24.67546 16.20544,-27.75946 l 2.63792,-2.81451 29.62908,-0.50258 c 35.39884,-0.60042 38.20527,-1.25757 47.14526,-11.03934 9.4072,-10.29298 10.97735,-21.23682 4.16079,-29.00046 -5.6741,-6.46244 -7.29608,-6.85408 -31.35638,-7.57128 -12.04468,-0.35903 -21.89942,-0.83387 -21.89942,-1.0552 0,-2.68988 15.67635,-28.96292 18.00291,-30.172262 0.99041,-0.514819 7.82214,-1.168319 15.18161,-1.45222 14.12834,-0.545018 19.63541,-2.007668 24.44273,-6.491863 3.95018,-3.684667 6.60086,-9.815571 6.60086,-15.267486 0,-4.181646 -0.55288,-5.519679 -3.49745,-8.464248 -3.52079,-3.520791 -10.80617,-5.922675 -17.96461,-5.922675 -4.76376,0 -4.90221,0.376 7.88341,-21.409369 8.1331,-13.857955 8.21176,-13.919433 17.7795,-13.897503 8.42288,0.01931 19.18755,1.900324 28.4153,4.965288 7.7294,2.567298 16.92816,11.978692 19.20641,19.65039 3.22627,10.864049 1.50815,23.461062 -4.81898,35.331967 -4.49926,8.441483 -10.3948,13.778989 -23.24194,21.042021 -6.06574,3.42921 -10.93883,6.71664 -10.82911,7.3054 0.10971,0.58875 2.94187,2.06346 6.29369,3.27712 11.70401,4.23792 16.86164,8.74976 21.37422,18.69792 2.74359,6.04834 2.98097,19.49172 0.49223,27.87507 -6.22443,20.96708 -19.74674,35.62853 -40.0222,43.39375 l -8.02852,3.0748 -52.27542,0.33591 -52.27542,0.33592 0.75809,-2.4651 z"
     id="path3341"
     inkscape:connector-curvature="0"
     transform="matrix(1.0000013,0,0,1.0000013,0,-3.0517616e-4)" />
  <path
     style="fill:#ffffff"
     d="m 118.62953,181.27276 c -0.0119,-0.62464 -1.71755,-12.60329 -3.79035,-26.61922 -5.16003,-34.89129 -5.13162,-37.1322 0.56398,-44.48618 1.60256,-2.06919 6.56429,-10.746962 11.02605,-19.283948 15.76985,-30.173497 32.58425,-60.217499 35.32847,-63.125016 2.76725,-2.931902 2.85959,-2.947569 21.86167,-3.709157 16.68246,-0.668619 24.90791,-0.302592 24.90791,1.108388 0,1.271217 -29.39813,53.83205 -58.61516,104.797883 -20.95315,36.55043 -31.24235,53.42927 -31.28257,51.31725 z"
     id="path3362"
     inkscape:connector-curvature="0"
     transform="matrix(1.0000013,0,0,1.0000013,0,-3.0517616e-4)" />
  <path
     style="fill:#ffffff"
     d="m 67.22542,211.97539 -8.028514,-0.66428 -2.889207,-16.05702 C 50.903975,165.22242 29.773883,37.924894 29.077186,31.204795 l -0.693621,-6.690428 23.586754,0 c 23.572132,0 23.587119,0.0015 24.175889,2.408554 1.42434,5.823101 24.785742,160.735959 26.864512,178.142479 0.64438,5.39568 0.58854,5.5434 -2.3083,6.10615 -5.208906,1.01189 -25.169707,1.49118 -33.477,0.80384 z"
     id="path3364"
     inkscape:connector-curvature="0"
     transform="matrix(1.0000013,0,0,1.0000013,0,-3.0517616e-4)" />
  <path
     style="fill:#ffffff"
     d="m 62.678541,211.07987 c -1.941649,-0.29423 -3.123268,-1.24014 -3.476994,-2.7834 C 57.505297,200.89595 30.863734,41.243332 29.358063,29.455972 l -0.667785,-5.227844 22.513694,0.498977 c 12.906289,0.286046 22.971586,0.95687 23.586704,1.571989 C 76.128752,27.63717 100.4374,185.08362 102.2141,203.91984 l 0.61544,6.52483 -5.75929,0.69153 c -6.103473,0.73286 -29.435939,0.69465 -34.391709,-0.0563 l 0,-2e-5 z"
     id="path3366"
     inkscape:connector-curvature="0"
     transform="matrix(1.0000013,0,0,1.0000013,0,-3.0517616e-4)" />
  <path
     style="fill:#ffffff"
     d="m 62.678541,211.07987 c -1.945402,-0.29479 -3.119754,-1.23715 -3.468635,-2.7834 C 57.388549,200.22421 30.823184,41.112031 29.3507,29.455972 l -0.660422,-5.227844 22.513694,0.498977 c 12.673508,0.280887 22.975808,0.961092 23.570981,1.556265 1.506616,1.506616 27.775927,172.7553 27.775927,181.07026 0,2.96931 -0.27834,3.15747 -5.61996,3.79908 -5.993075,0.71984 -29.34912,0.67018 -34.252379,-0.0728 l 0,-4e-5 z"
     id="path3368"
     inkscape:connector-curvature="0"
     transform="matrix(1.0000013,0,0,1.0000013,0,-3.0517616e-4)" />
  <path
     style="fill:#ffffff"
     d="M 62.191305,211.09751 C 60.894437,210.84602 59.585938,209.82777 59.28353,208.83473 58.039761,204.75054 36.571422,76.408416 29.10031,28.393264 l -0.645677,-4.149616 22.596405,0.456105 c 13.20494,0.266541 23.047581,0.907284 23.681962,1.541665 1.502604,1.502603 25.47501,156.507912 27.47893,177.678422 l 0.61761,6.52483 -5.75929,0.69153 c -6.187152,0.74292 -30.990487,0.7154 -34.878945,-0.0386 l 0,-5e-5 z"
     id="path3370"
     inkscape:connector-curvature="0"
     transform="matrix(1.0000013,0,0,1.0000013,0,-3.0517616e-4)" />
</svg>
